<svg xmlns="http://www.w3.org/2000/svg" version="1.1" xmlns:xlink="http://www.w3.org/1999/xlink" xmlns:svgjs="http://svgjs.dev/svgjs" width="2000" height="964" viewBox="0 0 2000 964"><g transform="matrix(1,0,0,1,-1.2121212121212466,0.9080036789001156)"><svg viewBox="0 0 396 191" data-background-color="#ffffff" preserveAspectRatio="xMidYMid meet" height="964" width="2000" xmlns="http://www.w3.org/2000/svg" xmlns:xlink="http://www.w3.org/1999/xlink"><g id="tight-bounds" transform="matrix(1,0,0,1,0.2400000000000091,-0.17990529322605653)"><svg viewBox="0 0 395.52 191.3598105864521" height="191.3598105864521" width="395.52"><g><svg viewBox="0 0 395.52 191.3598105864521" height="191.3598105864521" width="395.52"><g transform="matrix(1,0,0,1,0,141.18241806144772)"><svg viewBox="0 0 395.52 50.17739252500438" height="50.17739252500438" width="395.52"><g id="textblocktransform"><svg viewBox="0 0 395.52 50.17739252500438" height="50.17739252500438" width="395.52" id="textblock"><g><svg viewBox="0 0 395.52 50.17739252500438" height="50.17739252500438" width="395.52"><g transform="matrix(1,0,0,1,0,0)"><svg width="395.52" viewBox="3.799999952316284 -35.70000076293945 284.9300231933594 36.150001525878906" height="50.17739252500438" data-palette-color="#000000"><path d="M3.8 0L3.8-35.25 16.8-35.25Q25.45-35.25 30.23-30.63 35-26 35-17.65L35-17.65Q35-9.3 30.23-4.65 25.45 0 16.8 0L16.8 0 3.8 0ZM10.25-5.25L16.4-5.25Q28.55-5.25 28.55-17.65L28.55-17.65Q28.55-30 16.4-30L16.4-30 10.25-30 10.25-5.25ZM47.95 0L41.5 0 41.5-35.25 47.95-35.25 47.95 0ZM71.59-19.05L84.95-19.05 84.95-2.15Q82.55-0.95 79.12-0.25 75.7 0.45 72.15 0.45L72.15 0.45Q66.7 0.45 62.7-1.73 58.7-3.9 56.57-7.98 54.45-12.05 54.45-17.65L54.45-17.65Q54.45-23.2 56.57-27.28 58.7-31.35 62.62-33.52 66.55-35.7 71.84-35.7L71.84-35.7Q75.55-35.7 78.8-34.63 82.05-33.55 84.2-31.55L84.2-31.55 82.05-26.9Q79.59-28.8 77.22-29.63 74.84-30.45 72-30.45L72-30.45Q66.55-30.45 63.77-27.23 61-24 61-17.65L61-17.65Q61-4.65 72.4-4.65L72.4-4.65Q75.8-4.65 79.2-5.6L79.2-5.6 79.2-14.45 71.59-14.45 71.59-19.05ZM98.64 0L92.19 0 92.19-35.25 98.64-35.25 98.64 0ZM120.99 0L114.54 0 114.54-29.95 103.04-29.95 103.04-35.25 132.49-35.25 132.49-29.95 120.99-29.95 120.99 0ZM165.89 0L159.49 0 155.94-8.25 138.79-8.25 135.24 0 128.74 0 144.69-35.25 149.94-35.25 165.89 0ZM147.34-28.25L140.89-13.25 153.79-13.25 147.34-28.25ZM192.54 0L169.64 0 169.64-35.25 176.09-35.25 176.09-5.3 192.54-5.3 192.54 0ZM226.63 0.45Q221.48 0.45 217.71-1.75 213.93-3.95 211.88-8.05 209.83-12.15 209.83-17.65L209.83-17.65Q209.83-23.15 211.86-27.23 213.88-31.3 217.68-33.5 221.48-35.7 226.63-35.7L226.63-35.7Q231.78-35.7 235.56-33.5 239.33-31.3 241.36-27.23 243.38-23.15 243.38-17.65L243.38-17.65Q243.38-12.15 241.33-8.05 239.28-3.95 235.51-1.75 231.73 0.45 226.63 0.45L226.63 0.45ZM226.63-4.7Q231.48-4.7 234.21-8.05 236.93-11.4 236.93-17.65L236.93-17.65Q236.93-23.9 234.21-27.23 231.48-30.55 226.63-30.55L226.63-30.55Q221.73-30.55 219.01-27.23 216.28-23.9 216.28-17.65L216.28-17.65Q216.28-11.4 219.01-8.05 221.73-4.7 226.63-4.7L226.63-4.7ZM247.13 0L247.13-6.9 254.13-6.9 254.13 0 247.13 0ZM282.33-18.2Q285.38-17.35 287.05-15.1 288.73-12.85 288.73-9.6L288.73-9.6Q288.73-5.1 285.5-2.55 282.28 0 276.63 0L276.63 0 260.63 0 260.63-35.25 276.13-35.25Q281.63-35.25 284.75-32.83 287.88-30.4 287.88-26.05L287.88-26.05Q287.88-23.25 286.4-21.2 284.93-19.15 282.33-18.2L282.33-18.2ZM266.93-30.25L266.93-20.4 275.08-20.4Q281.73-20.4 281.73-25.35L281.73-25.35Q281.73-27.85 280.08-29.05 278.43-30.25 275.08-30.25L275.08-30.25 266.93-30.25ZM275.93-5Q279.43-5 281.03-6.25 282.63-7.5 282.63-10.15L282.63-10.15Q282.63-12.8 281-14.1 279.38-15.4 275.93-15.4L275.93-15.4 266.93-15.4 266.93-5 275.93-5Z" opacity="1" transform="matrix(1,0,0,1,0,0)" fill="#000000" class="wordmark-text-0" data-fill-palette-color="primary" id="text-0"></path></svg></g></svg></g></svg></g></svg></g><g transform="matrix(1,0,0,1,139.01446908700908,0)"><svg viewBox="0 0 117.49106182598184 117.49106182598184" height="117.49106182598184" width="117.49106182598184"><g><svg></svg></g><g id="icon-0"><svg viewBox="0 0 117.49106182598184 117.49106182598184" height="117.49106182598184" width="117.49106182598184"><g><path d="M0 58.746c0-32.444 26.301-58.746 58.746-58.746 32.444 0 58.746 26.301 58.745 58.746 0 32.444-26.301 58.746-58.745 58.745-32.444 0-58.746-26.301-58.746-58.745zM58.746 112.966c29.945 0 54.22-24.275 54.22-54.22 0-29.945-24.275-54.22-54.22-54.221-29.945 0-54.22 24.275-54.221 54.221 0 29.945 24.275 54.22 54.221 54.22z" data-fill-palette-color="accent" fill="#000000" stroke="transparent"></path><ellipse rx="58.158075603861015" ry="58.158075603861015" cx="58.74553091299092" cy="58.74553091299092" fill="#000000" stroke="transparent" stroke-width="0" fill-opacity="1" data-fill-palette-color="accent"></ellipse></g><g transform="matrix(1,0,0,1,37.94393016678481,29.047814111617985)"><svg viewBox="0 0 41.603201492412225 59.395433602745875" height="59.395433602745875" width="41.603201492412225"><g><svg xmlns="http://www.w3.org/2000/svg" xmlns:xlink="http://www.w3.org/1999/xlink" xml:space="preserve" version="1.1" style="shape-rendering:geometricPrecision;text-rendering:geometricPrecision;image-rendering:optimizeQuality;" viewBox="1848 500 6304 9000" x="0" y="0" fill-rule="evenodd" clip-rule="evenodd" height="59.395433602745875" width="41.603201492412225" class="icon-s-0" data-fill-palette-color="quaternary" id="s-0"><g fill="#ffffff" data-fill-palette-color="quaternary"><path class="" d="M5318 5848c971 123 2248 478 2753 962 53 180 81 370 81 566 0 1134-968 1805-2101 2054-131 29-712 52-838 70l70-2208-231-483 451-263-185-698z m-2325-4181c214-102 1476-1047 1601-1093 125-46 403-74 403-74 0 0 277 28 402 74 125 46 1387 991 1601 1093 92 47 114 114 135 172 20 58-144 236-188 310-25 42-98 174-148 304-480-148-1266-334-1858-334-654 0-1449 207-1759 302-49-119-113-234-136-272-44-74-208-252-187-310 20-58 42-125 134-172z m1983-771c0 0-49 97-102 97-54 0-282 5-282 5l0 97c0 0 76 47 80 79 5 32 18 111-22 158-40 46-67 106-58 152 9 47 9 130 138 209 130 79 202 97 215 130 14 32 52 109 52 109 0 0 38-77 51-109 13-33 85-51 215-130 129-79 129-162 138-209 9-46-18-106-58-152-40-47-27-126-22-158 4-32 80-79 80-79l0-97c0 0-228-5-281-5-54 0-103-97-103-97l-20-26-21 26z m1792 1843c43 123 26 250-116 337-153 92-761 241-1020 268-260 28-635 19-635 19 0 0-376 9-636-19-259-27-867-176-1019-268-152-93-161-232-108-362 3-6 5-13 7-21 306-60 1042-194 1709-194 704 0 1461 146 1818 240z m-3449 405c3 119 17 234 44 344 27 116 67 227 118 332l89-5c-2-91-5-340 13-564 23 7 46 14 70 21l0 3c243 70 545 135 710 152 265 29 648 19 648 19 0 0 384 10 649-19 172-18 497-89 744-162l1 2c11-3 23-7 35-10 17 223 14 468 12 558l89 5c51-105 91-216 119-332 25-106 40-216 43-330 3-1 6-3 9-5 16-10 38-41 65-89 0 17 0 34 0 51 0 135-15 265-45 391-11 47-25 93-40 139 72 64 88 233 34 412-55 181-164 312-260 324-231 795-795 1356-1455 1356-659 0-1224-561-1454-1355-101 8-224-129-284-325-59-193-35-375 52-426-13-41-24-83-35-125-29-126-45-256-45-391 0-17 0-34 1-51 17 30 41 58 73 80z m2465 394c-134-32-162-21-215-24-392 2-823-14-1210 6-7 0-121 16-132 18-174 40-510 302-461 520 50 218 336 338 641 269 304-69 493-375 460-520-32-144-58-132-118-180l511 2c-59 47-84 34-116 178-33 145 156 451 461 520 304 69 590-51 640-269 50-218-326-487-461-520z m-976 5960c-132-17-720-40-859-68-1138-226-2101-920-2101-2054 0-186 25-366 73-538 502-498 1792-865 2782-990l-185 698 451 263-231 483 70 2206z" fill="#ffffff" data-fill-palette-color="quaternary"></path></g></svg></g></svg></g></svg></g></svg></g><g></g></svg></g><defs></defs></svg><rect width="395.52" height="191.3598105864521" fill="none" stroke="none" visibility="hidden"></rect></g></svg></g></svg>